PathFileType	4	(X/Y/Z)	C:/Users/beibeiliu/ov580/test_trc/User3\sequence.12_training_dense_right.trc
DataRate	CameraRate	NumFrames	NumMarkers	Units	OrigDataRate	OrigDataStartFrame	OrigNumFrames
120	120	20	19	mm	120	94	250
Frame#	Time	ThumbCMC			ThumbMCP			ThumbIP			ThumbTip			IndexMCP			IndexPIP			IndexTip			MiddleMCP			MiddlePIP			MiddleTip			RingMCP			RingPIP			RingTip			PinkyMCP			PinkyPIP			PinkyTip			BackHand1			BackHand2			BackHand3	
		X0	Y0	Z0	X1	Y1	Z1	X2	Y2	Z2	X3	Y3	Z3	X4	Y4	Z4	X5	Y5	Z5	X6	Y6	Z6	X7	Y7	Z7	X8	Y8	Z8	X9	Y9	Z9	X10	Y10	Z10	X11	Y11	Z11	X12	Y12	Z12	X13	Y13	Z13	X14	Y14	Z14	X15	Y15	Z15	X16	Y16	Z16	X17	Y17	Z17	X18	Y18	Z18	
93	0.775	224.829	30.4624	9.35315	226.854	44.8513	-16.3551	231.898	46.9501	-48.5887	229.447	50.9561	-69.4516	246.461	18.8432	-62.9272	253.304	18.7797	-87.188	259.645	8.54642	-111.42	249.633	0.850454	-68.0856	255.325	-3.36314	-97.7328	262.986	-2.23061	-125.325	243.604	-16.7472	-65.2383	248.066	-18.5124	-85.05	254.457	-17.2537	-109.164	234.148	-33.6947	-49.4831	239.879	-34.7452	-68.8434	245.281	-32.471	-92.0255	246.936	-23.4022	-16.2315	245.848	-21.297	18.105	250.015	11.0061	-1.96558	
94	0.783333	211.909	31.8455	15.2843	212.113	47.9526	-10.7655	217.717	54.4621	-44.0546	217.881	52.6647	-67.6438	241.45	27.491	-59.6435	250.068	29.2726	-84.815	257.466	30.4826	-106.064	249.891	12.6808	-66.0538	255.732	13.7325	-93.4725	265.418	16.0618	-121.291	249.589	-5.75621	-61.5887	254.583	-6.21667	-81.9862	263.036	-4.58306	-106.005	240.342	-22.4112	-44.0591	248.172	-19.6612	-65.7445	256.008	-16.7083	-90.7719	249.18	-11.6097	-12.2265	249.234	-13.7373	15.497	243.528	22.9408	6.57011	
95	0.791667	202.689	34.2014	16.1665	200.717	50.3985	-8.10695	206.211	57.3053	-41.7671	207.746	53.891	-61.2077	233.583	40.2864	-53.9233	243.362	42.1179	-79.5901	251.437	45.522	-100.844	247.897	21.8936	-60.4991	253.331	29.5108	-87.0734	263.592	33.4652	-113.86	249.775	8.12529	-56.0387	256.475	11.0215	-77.9538	265.705	15.365	-102.263	247.77	-11.1153	-43.1484	255.562	-7.33908	-65.5705	261.015	-2.87038	-85.4247	251.1	2.28104	-7.89939	250.775	-3.37528	19.7993	237.136	27.2051	5.7677	
96	0.8	194.04	32.4986	17.1055	193.96	45.0364	-8.71512	194.457	54.7578	-35.5783	197.503	55.7739	-59.8661	225.952	48.1052	-52.2535	232.684	54.4383	-73.973	246.364	55.1402	-94.4873	243.16	37.078	-62.0252	251.253	40.6429	-83.8717	257.618	51.5677	-107.429	250.146	16.3994	-53.6338	257.794	25.6036	-78.5795	263.521	36.4963	-99.8103	254.04	-4.38901	-41.0264	256.141	7.91397	-62.5342	266.205	12.7405	-79.0003	247.296	11.1547	-4.02286	246.728	6.84095	21.7452	227.392	32.6369	12.6615	
97	0.808333	185.198	28.2467	16.7193	184.253	41.9406	-6.21469	181.409	55.7549	-33.8785	188.345	55.469	-58.0613	219.844	50.6033	-49.3656	226.038	59.1218	-72.3826	237.709	66.5666	-92.138	236.989	46.6215	-58.8113	241.513	53.8241	-79.5349	251.908	66.1296	-105.622	247.735	29.04	-54.3687	255.07	35.3811	-72.1449	262.539	46.8552	-94.82	251.357	8.35654	-39.1584	260.215	17.4321	-61.1494	267.549	28.2177	-78.7855	245.634	17.8383	-4.60538	244.256	13.4054	23.5153	218.181	36.2228	12.0194	
98	0.816667	178.779	22.8691	20.9698	172.492	38.7824	-2.47814	175.195	50.5853	-30.4185	177.874	57.0398	-56.1427	211.829	54.0659	-46.309	218.639	63.7402	-67.9645	225.781	78.6804	-87.9568	231.501	52.2232	-54.1825	235.576	63.4047	-77.3293	239.215	76.9416	-98.1942	242.531	36.0321	-47.7107	247.579	46.512	-67.3848	253.349	59.2475	-88.4083	253.591	15.3369	-35.8801	252.926	31.3651	-56.3927	259.706	41.0062	-73.7772	238.305	25.322	0.775409	240.255	16.5247	29.1306	209.479	38.6411	12.9113	
99	0.825	174.915	21.2124	22.0963	167.734	35.275	-0.633181	167.317	50.6766	-29.526	169.012	56.881	-53.4371	199.266	58.4225	-43.1899	203.962	69.8977	-62.9781	214.512	84.7076	-84.0693	219.325	60.078	-50.0025	223.703	69.0548	-70.582	226.725	87.5828	-93.7463	235.052	45.7666	-45.6821	241.46	57.2779	-65.1112	246.181	71.0488	-84.7538	249.604	28.0114	-34.1199	252.511	39.0351	-52.487	253.224	54.4777	-67.9072	234.633	31.4117	0.950048	237.536	22.5231	31.2026	202.763	37.8862	17.0098	
100	0.833333	171.191	17.2023	24.6303	158.26	34.3849	2.87997	156.229	46.5154	-24.3247	164.746	53.31	-47.9476	192.803	60.0454	-38.8169	194.551	76.1263	-59.6881	201.597	88.1372	-75.5483	211.417	63.0303	-44.7941	214.483	77.0382	-66.377	215.051	94.9556	-86.9321	227.387	51.9905	-39.2234	229.04	66.8033	-58.8077	232.904	84.0405	-81.2882	240.805	33.9513	-28.6728	240.579	47.3213	-45.045	246.032	62.8709	-63.318	224.787	36.3646	6.43992	231.246	27.1311	33.3163	196.453	40.3403	21.0301	
101	0.841667	163.947	17.7061	25.6318	155.295	32.251	4.54915	149.891	48.241	-23.2545	151.536	51.9993	-42.9882	179.405	64.785	-35.2704	181.332	78.5091	-53.0012	189.163	95.6484	-71.4764	201.279	69.1387	-40.4844	200.226	81.4838	-58.8558	201.276	105.151	-81.7787	214.929	58.9423	-35.1442	218.233	73.0673	-53.4751	219.349	90.9861	-73.0818	231.594	39.0021	-24.5415	232.589	55.5637	-42.5949	235.218	72.6557	-56.3602	219.594	38.1586	12.3833	221.09	28.5119	37.9238	190.319	39.9269	24.1135	
102	0.85	161.502	13.915	29.1207	145.618	29.9135	9.50595	141.548	46.3651	-19.2409	146.026	49.1434	-38.2144	172.115	63.7873	-27.9052	173.294	80.1675	-46.054	177.059	98.4733	-63.7685	191.936	70.8798	-32.8802	191.701	88.0905	-53.5706	192.397	111.787	-75.0595	209.123	60.9057	-29.2757	208.032	77.5386	-46.6056	208.529	96.3733	-64.9163	224.21	47.1361	-22.1795	225.272	60.5494	-37.1761	227.326	77.3383	-50.4649	210.749	44.3423	12.3959	216.516	31.0908	42.7958	183.619	39.3428	28.6342	
103	0.858333	152.854	11.4448	34.0515	140.262	27.7041	13.3805	136.73	43.2905	-12.6232	139.052	53.7109	-36.8511	166.131	66.4978	-24.833	161.917	84.918	-42.9441	162.721	103.321	-58.9556	185.087	72.3494	-28.725	178.993	90.7982	-48.4004	176.392	112.904	-66.3421	198.611	66.0376	-26.3375	199.578	80.2996	-41.2871	199.238	99.9165	-58.8391	218.493	51.2675	-19.3098	215.848	63.6865	-31.4149	216.364	81.949	-43.6555	206.194	45.1132	16.8392	208.591	32.5158	45.0183	172.328	38.7151	33.2318	
104	0.866667	152.247	8.84524	35.4623	131.76	28.4022	16.1434	130.888	43.8489	-9.41644	132.348	51.2497	-30.1789	153.328	65.7686	-18.8019	151.898	86.208	-37.4131	157.171	103.346	-52.7738	171.526	75.9172	-25.2288	172.456	91.7909	-42.6713	170.078	114.935	-60.2288	192.55	67.4275	-22.7751	188.008	84.6033	-37.7963	191.394	104.064	-55.2956	211.214	50.7878	-14.6505	209.614	66.7616	-29.1269	205.394	87.8823	-41.9222	199.163	44.2319	22.5613	204.94	30.5962	47.3271	171.308	35.9987	35.4981	
105	0.875	146.364	9.60907	37.5958	127.217	26.6781	18.7046	122.442	44.5576	-7.86133	127.119	53.2016	-29.1693	148.41	67.1725	-16.9678	146.075	84.4736	-33.245	148.446	102.516	-47.3842	167.14	75.0575	-22.2813	165.397	90.28	-38.0095	161.237	116.003	-56.7049	183.067	69.1718	-21.4799	180.029	85.5549	-35.283	180.393	103.187	-48.6198	204.296	51.8383	-13.2742	199.719	69.8944	-27.9843	199.127	86.8603	-38.1248	193.177	44.7654	21.0965	197.606	31.4941	48.0948	162.505	36.246	35.5528	
106	0.883333	138.837	7.34679	40.45	122.272	25.0234	21.8765	119.038	43.7685	-4.89398	122.341	49.7795	-24.8998	147.132	65.501	-14.9043	145.224	82.4933	-29.2492	146.062	104.43	-45.2356	164.822	75.1889	-20.8993	161.132	93.7439	-36.6366	156.571	119.781	-54.5356	178.62	68.3214	-18.2505	176.673	83.4999	-31.471	173.717	102.998	-45.6417	201.784	50.1715	-11.7432	198.285	70.6175	-26.8207	197.943	86.5104	-35.1747	192.744	45.4383	22.8736	198.348	30.0524	49.3685	159.599	36.4708	37.0034	
107	0.891667	136.673	4.85464	40.8218	123.699	23.3389	20.9436	117.497	42.3048	-4.32384	117.978	50.7207	-25.7533	141.368	64.5201	-11.6108	137.464	85.3739	-28.4805	141.238	105.894	-45.7933	158.956	75.6605	-19.0666	155.498	91.9705	-34.7641	156.209	114.773	-50.6305	175.63	66.107	-16.7058	176.825	86.2418	-31.2336	171.139	103.719	-44.2289	197.352	52.1598	-11.4904	194.389	66.626	-21.5005	189.534	87.3608	-32.1375	189.237	42.5127	23.4727	191.449	30.3861	48.1233	156.733	33.439	39.7594	
108	0.9	137.481	2.96302	40.4828	118.86	23.655	20.7018	110.586	39.8896	-3.72895	116.883	49.0663	-25.3441	140.421	61.8454	-9.98246	138.103	85.1608	-28.1691	138.349	104.565	-43.7833	156.821	69.3491	-14.5437	158.117	90.2558	-32.2637	151.701	114.222	-49.4464	174.478	66.8532	-16.5739	175.675	84.3512	-28.7651	172.885	106.36	-42.8146	193.835	52.0998	-10.7403	190.921	64.7516	-20.2462	190.343	86.9002	-30.3224	187.699	39.0582	24.9122	187.59	28.04	49.9565	154.633	33.1875	41.3565	
109	0.908333	133.043	2.01003	42.1584	118.467	19.0671	23.4619	111.538	38.5174	-4.30112	116.059	46.9655	-25.3832	136.928	58.3002	-8.78538	135.73	78.1814	-25.4984	138.277	102.417	-41.0019	158.825	70.8151	-17.1231	151.993	87.4126	-32.2453	153.182	111.619	-47.2967	176.603	63.0244	-15.3451	175.295	79.0038	-26.6567	171.673	101.06	-40.9921	191.088	47.1201	-7.77511	190.476	64.613	-20.8338	187.149	82.9599	-30.8145	184.265	36.6121	25.9465	189.806	25.6605	51.1421	154.516	27.817	41.9177	
110	0.916667	130.949	3.34314	41.1587	116.173	18.1591	21.6809	107.285	34.5289	-2.12936	110.55	46.1295	-26.1403	140.404	55.4568	-9.81846	137.087	77.1892	-28.5704	135.269	97.1073	-40.4825	154.007	64.9477	-15.0457	153.658	86.6721	-35.5538	151.233	110.05	-49.3385	174.649	57.1893	-14.6313	168.991	78.1592	-29.3693	168.496	94.6808	-41.9423	191.669	43.8553	-8.42777	187.252	58.8805	-20.9924	190.122	80.2935	-30.8366	184.499	33.4941	26.5415	187.78	19.9342	52.3336	152.173	29.4538	41.3937	
111	0.925	132.65	0.757746	40.1825	116.55	14.8244	21.6718	106.707	30.9953	-1.99172	109.174	40.7361	-25.1375	137.824	53.8864	-12.8138	134.615	73.2241	-31.0642	133.425	92.3372	-45.101	155.417	61.8375	-18.6154	149.878	78.4869	-36.3071	148.243	106.366	-55.0486	174.085	54.4089	-18.1199	168.346	71.1295	-32.932	167.98	93.1544	-47.7818	189.36	36.7802	-10.0462	187.689	54.5324	-24.3986	189.213	72.8132	-34.1301	178.032	33.9157	23.2181	188.513	21.1327	49.6942	150.662	26.2626	43.9525	
112	0.933333	129.974	0.729301	41.1309	117.103	15.9674	20.0742	106.384	29.0005	-3.16796	105.972	38.2599	-27.6188	133.125	49.2009	-16.4714	133.988	67.9569	-36.7512	134.03	82.8579	-49.7864	150.162	59.2605	-25.8845	150.927	72.2814	-41.4704	144.333	96.9233	-60.6565	168.538	50.933	-22.2381	167.133	66.7259	-38.413	167.497	86.8666	-55.3368	189.43	33.5632	-14.2109	189.239	50.7627	-29.1554	186.835	67.7322	-41.4626	180.033	33.223	20.5143	185.679	20.8403	47.4435	149.631	24.9133	38.7428	
